<svg width="690" height="177" viewBox="0 0 690 177" fill="none" xmlns="http://www.w3.org/2000/svg">
<path fill-rule="evenodd" clip-rule="evenodd" d="M166.201 114.349C155.797 140.988 129.883 159.858 99.5608 159.858C69.2389 159.858 43.3245 140.988 32.921 114.35L52.4005 92.401L146.721 92.401L166.201 114.349ZM170.963 92.401H146.721L99.5609 39.2625L52.4005 92.401H28.1584C28.0832 91.0578 28.0452 89.7047 28.0452 88.3428C28.0452 48.8458 60.0638 16.8272 99.5608 16.8272C139.058 16.8272 171.076 48.8458 171.076 88.3428C171.076 89.7048 171.038 91.0578 170.963 92.401ZM187.812 92.401C187.873 91.0559 187.904 89.7029 187.904 88.3428C187.904 39.5524 148.351 0 99.5608 0C50.7704 0 11.218 39.5524 11.218 88.3428C11.218 89.7029 11.2487 91.0558 11.3095 92.401H2.24728e-06L0 151.444L20.6734 128.15C35.2316 156.944 65.0907 176.686 99.5608 176.686C134.031 176.686 163.89 156.944 178.448 128.15L199.122 151.444L199.122 92.401H187.812Z" fill="#5AE4A7"/>
<path d="M271.473 83.0145C268.821 86.1897 265.073 88.6611 260.229 90.4287C255.384 92.1636 250.016 93.031 244.124 93.031C237.937 93.031 232.503 91.689 227.822 89.0048C223.174 86.2879 219.573 82.3598 217.02 77.2206C214.5 72.0814 213.207 66.042 213.141 59.1025V54.2415C213.141 47.1055 214.336 40.9352 216.725 35.7305C219.148 30.4931 222.618 26.4996 227.135 23.75C231.685 20.9676 237.004 19.5764 243.093 19.5764C251.571 19.5764 258.199 21.6059 262.978 25.6649C267.757 29.6912 270.589 35.5669 271.473 43.292H257.135C256.481 39.2003 255.024 36.2052 252.765 34.3066C250.539 32.4081 247.463 31.4588 243.534 31.4588C238.526 31.4588 234.713 33.341 232.094 37.1054C229.475 40.8697 228.15 46.4672 228.117 53.8978V58.4642C228.117 65.9602 229.541 71.6231 232.389 75.453C235.236 79.2829 239.41 81.1978 244.909 81.1978C250.441 81.1978 254.386 80.0194 256.743 77.6625V65.3383H243.338V54.487H271.473V83.0145Z" fill="#1A2E35"/>
<path d="M312.374 52.2284C310.442 51.9665 308.74 51.8356 307.267 51.8356C301.899 51.8356 298.38 53.6523 296.71 57.2857V92.049H282.52V38.9221H295.925L296.318 45.2561C299.166 40.3787 303.11 37.9401 308.151 37.9401C309.722 37.9401 311.195 38.1528 312.57 38.5784L312.374 52.2284Z" fill="#1A2E35"/>
<path d="M348.561 92.049C347.906 90.7724 347.432 89.1848 347.137 87.2863C343.7 91.1161 339.232 93.031 333.732 93.031C328.528 93.031 324.207 91.5253 320.77 88.5138C317.366 85.5023 315.663 81.7052 315.663 77.1224C315.663 71.4922 317.742 67.1714 321.899 64.1598C326.089 61.1483 332.128 59.6262 340.017 59.5935H346.548V56.5492C346.548 54.0942 345.909 52.1302 344.633 50.6572C343.389 49.1841 341.408 48.4476 338.692 48.4476C336.302 48.4476 334.42 49.0205 333.045 50.1661C331.703 51.3118 331.032 52.883 331.032 54.8798H316.842C316.842 51.8028 317.791 48.955 319.69 46.3363C321.588 43.7176 324.272 41.6717 327.742 40.1987C331.212 38.6929 335.107 37.9401 339.428 37.9401C345.975 37.9401 351.163 39.5931 354.993 42.8992C358.856 46.1726 360.787 50.7881 360.787 56.7456V79.7739C360.82 84.8149 361.523 88.6284 362.898 91.2143V92.049H348.561ZM336.826 82.1798C338.921 82.1798 340.852 81.7215 342.62 80.805C344.387 79.8557 345.697 78.5954 346.548 77.0242V67.8915H341.245C334.142 67.8915 330.361 70.3465 329.903 75.2566L329.853 76.0913C329.853 77.8589 330.475 79.3156 331.719 80.4613C332.963 81.607 334.665 82.1798 336.826 82.1798Z" fill="#1A2E35"/>
<path d="M384.748 38.9221L385.19 45.0597C388.987 40.3133 394.077 37.9401 400.46 37.9401C406.09 37.9401 410.28 39.5931 413.03 42.8992C415.78 46.2054 417.187 51.1482 417.253 57.7277V92.049H403.063V58.0714C403.063 55.0598 402.408 52.883 401.099 51.541C399.789 50.1661 397.612 49.4787 394.568 49.4787C390.575 49.4787 387.58 51.1809 385.583 54.5852V92.049H371.393V38.9221H384.748Z" fill="#1A2E35"/>
<path d="M425.845 65.0928C425.845 56.8111 427.695 50.2152 431.394 45.3052C435.125 40.3951 440.215 37.9401 446.664 37.9401C451.836 37.9401 456.108 39.8714 459.479 43.734V16.6304H473.719V92.049H460.903L460.216 86.4025C456.681 90.8215 452.131 93.031 446.566 93.031C440.314 93.031 435.289 90.576 431.492 85.6659C427.728 80.7231 425.845 73.8654 425.845 65.0928ZM440.035 66.1239C440.035 71.0994 440.903 74.9129 442.638 77.5643C444.373 80.2158 446.893 81.5415 450.199 81.5415C454.586 81.5415 457.679 79.692 459.479 75.9931V55.0271C457.712 51.3282 454.651 49.4787 450.297 49.4787C443.456 49.4787 440.035 55.0271 440.035 66.1239Z" fill="#1A2E35"/>
<path d="M541.772 68.2352C541.216 75.9276 538.368 81.9834 533.229 86.4025C528.122 90.8215 521.379 93.031 512.999 93.031C503.834 93.031 496.616 89.9541 491.346 83.8001C486.108 77.6134 483.49 69.1354 483.49 58.366V53.996C483.49 47.1219 484.701 41.0661 487.123 35.8287C489.545 30.5913 492.999 26.5814 497.483 23.7991C502.001 20.984 507.238 19.5764 513.195 19.5764C521.444 19.5764 528.089 21.7859 533.13 26.205C538.171 30.6241 541.085 36.8271 541.87 44.8142H527.14C526.78 40.1987 525.487 36.8599 523.261 34.7976C521.068 32.7027 517.713 31.6552 513.195 31.6552C508.285 31.6552 504.603 33.4228 502.148 36.9581C499.726 40.4606 498.482 45.9108 498.416 53.3086V58.7097C498.416 66.4348 499.578 72.0814 501.902 75.6494C504.259 79.2174 507.958 81.0014 512.999 81.0014C517.549 81.0014 520.937 79.9703 523.163 77.908C525.422 75.8131 526.715 72.5888 527.042 68.2352H541.772Z" fill="#1A2E35"/>
<path d="M548.302 64.9946C548.302 59.7244 549.317 55.0271 551.347 50.9027C553.376 46.7782 556.29 43.5867 560.087 41.328C563.916 39.0694 568.352 37.9401 573.393 37.9401C580.562 37.9401 586.405 40.1332 590.922 44.5196C595.472 48.9059 598.009 54.8634 598.532 62.3922L598.631 66.0257C598.631 74.1764 596.356 80.7231 591.806 85.6659C587.256 90.576 581.151 93.031 573.491 93.031C565.831 93.031 559.71 90.576 555.127 85.6659C550.577 80.7559 548.302 74.0782 548.302 65.6329V64.9946ZM562.493 66.0257C562.493 71.0667 563.442 74.9293 565.34 77.6134C567.239 80.2649 569.956 81.5906 573.491 81.5906C576.928 81.5906 579.612 80.2812 581.544 77.6625C583.475 75.0111 584.441 70.7884 584.441 64.9946C584.441 60.0518 583.475 56.2219 581.544 53.505C579.612 50.7881 576.895 49.4296 573.393 49.4296C569.923 49.4296 567.239 50.7881 565.34 53.505C563.442 56.1892 562.493 60.3627 562.493 66.0257Z" fill="#1A2E35"/>
<path d="M637.224 52.2284C635.293 51.9665 633.59 51.8356 632.117 51.8356C626.749 51.8356 623.23 53.6523 621.561 57.2857V92.049H607.371V38.9221H620.775L621.168 45.2561C624.016 40.3787 627.96 37.9401 633.001 37.9401C634.572 37.9401 636.045 38.1528 637.42 38.5784L637.224 52.2284Z" fill="#1A2E35"/>
<path d="M667.568 93.031C659.777 93.031 653.427 90.6415 648.517 85.8623C643.64 81.0832 641.201 74.7165 641.201 66.7622V65.3874C641.201 60.0518 642.232 55.289 644.294 51.0991C646.357 46.8764 649.27 43.6358 653.034 41.3771C656.831 39.0858 661.152 37.9401 665.997 37.9401C673.264 37.9401 678.976 40.2314 683.133 44.8142C687.323 49.3969 689.418 55.8946 689.418 64.3071V70.101H655.587C656.046 73.5708 657.421 76.3532 659.712 78.4481C662.036 80.5431 664.966 81.5906 668.501 81.5906C673.968 81.5906 678.239 79.6102 681.316 75.6494L688.289 83.4564C686.161 86.4679 683.28 88.8248 679.647 90.5269C676.013 92.1963 671.987 93.031 667.568 93.031ZM665.948 49.4296C663.133 49.4296 660.841 50.3789 659.074 52.2775C657.339 54.176 656.226 56.8929 655.735 60.4282H675.473V59.2989C675.408 56.1564 674.557 53.7341 672.92 52.032C671.283 50.2971 668.959 49.4296 665.948 49.4296Z" fill="#1A2E35"/>
<path d="M240.879 135.3H225.826V151.056H221.095V115.378H243.318V119.25H225.826V131.453H240.879V135.3Z" fill="#1A2E35"/>
<path d="M246.521 137.554C246.521 134.957 247.03 132.621 248.048 130.546C249.083 128.471 250.512 126.87 252.335 125.743C254.174 124.616 256.268 124.052 258.617 124.052C262.247 124.052 265.179 125.302 267.413 127.802C269.663 130.301 270.788 133.625 270.788 137.775V138.093C270.788 140.674 270.287 142.994 269.285 145.052C268.299 147.094 266.879 148.687 265.023 149.831C263.183 150.974 261.064 151.546 258.666 151.546C255.053 151.546 252.121 150.296 249.871 147.797C247.637 145.298 246.521 141.989 246.521 137.873V137.554ZM251.103 138.093C251.103 141.034 251.785 143.394 253.148 145.175C254.528 146.956 256.367 147.846 258.666 147.846C260.982 147.846 262.822 146.947 264.185 145.15C265.548 143.337 266.23 140.805 266.23 137.554C266.23 134.646 265.532 132.294 264.136 130.497C262.756 128.684 260.917 127.777 258.617 127.777C256.367 127.777 254.552 128.667 253.172 130.448C251.793 132.229 251.103 134.777 251.103 138.093Z" fill="#1A2E35"/>
<path d="M292.961 148.434C291.187 150.509 288.584 151.546 285.151 151.546C282.31 151.546 280.141 150.729 278.647 149.096C277.169 147.446 276.421 145.012 276.405 141.793V124.543H280.963V141.671C280.963 145.69 282.605 147.699 285.89 147.699C289.372 147.699 291.688 146.408 292.838 143.827V124.543H297.395V151.056H293.059L292.961 148.434Z" fill="#1A2E35"/>
<path d="M308.654 124.543L308.802 127.875C310.839 125.327 313.5 124.052 316.785 124.052C322.418 124.052 325.26 127.214 325.309 133.536V151.056H320.751V133.511C320.735 131.6 320.291 130.187 319.421 129.272C318.567 128.357 317.228 127.9 315.405 127.9C313.927 127.9 312.629 128.292 311.512 129.076C310.395 129.86 309.525 130.889 308.901 132.163V151.056H304.343V124.543H308.654Z" fill="#1A2E35"/>
<path d="M331.074 137.579C331.074 133.511 332.043 130.244 333.981 127.777C335.919 125.294 338.457 124.052 341.594 124.052C344.714 124.052 347.186 125.114 349.009 127.238V113.418H353.567V151.056H349.379L349.157 148.213C347.334 150.435 344.796 151.546 341.544 151.546C338.457 151.546 335.935 150.288 333.981 147.772C332.043 145.257 331.074 141.973 331.074 137.922V137.579ZM335.632 138.093C335.632 141.099 336.256 143.452 337.504 145.15C338.752 146.849 340.477 147.699 342.678 147.699C345.568 147.699 347.679 146.408 349.009 143.827V131.649C347.646 129.149 345.552 127.9 342.727 127.9C340.493 127.9 338.752 128.757 337.504 130.473C336.256 132.188 335.632 134.728 335.632 138.093Z" fill="#1A2E35"/>
<path d="M377.12 151.056C376.857 150.533 376.644 149.602 376.479 148.263C374.361 150.452 371.831 151.546 368.891 151.546C366.263 151.546 364.103 150.811 362.412 149.341C360.736 147.854 359.899 145.975 359.899 143.705C359.899 140.944 360.95 138.804 363.052 137.285C365.171 135.749 368.144 134.981 371.971 134.981H376.405V132.898C376.405 131.314 375.929 130.056 374.976 129.125C374.024 128.177 372.62 127.704 370.764 127.704C369.138 127.704 367.774 128.112 366.674 128.929C365.573 129.746 365.023 130.734 365.023 131.894H360.441C360.441 130.571 360.909 129.296 361.845 128.071C362.798 126.83 364.079 125.849 365.688 125.131C367.314 124.412 369.097 124.052 371.035 124.052C374.106 124.052 376.512 124.82 378.253 126.356C379.994 127.875 380.898 129.974 380.963 132.653V144.856C380.963 147.291 381.275 149.226 381.899 150.664V151.056H377.12ZM369.556 147.601C370.985 147.601 372.34 147.233 373.621 146.498C374.903 145.763 375.831 144.807 376.405 143.631V138.191H372.833C367.249 138.191 364.457 139.817 364.457 143.068C364.457 144.489 364.933 145.6 365.886 146.4C366.838 147.201 368.062 147.601 369.556 147.601Z" fill="#1A2E35"/>
<path d="M394.292 118.123V124.543H399.268V128.047H394.292V144.489C394.292 145.551 394.513 146.351 394.957 146.89C395.4 147.413 396.156 147.674 397.223 147.674C397.749 147.674 398.472 147.576 399.391 147.38V151.056C398.192 151.383 397.026 151.546 395.893 151.546C393.856 151.546 392.321 150.933 391.286 149.708C390.251 148.483 389.734 146.743 389.734 144.489V128.047H384.88V124.543H389.734V118.123H394.292Z" fill="#1A2E35"/>
<path d="M409.566 151.056H405.009V124.543H409.566V151.056ZM404.639 117.51C404.639 116.775 404.861 116.154 405.304 115.648C405.764 115.141 406.438 114.888 407.325 114.888C408.211 114.888 408.885 115.141 409.345 115.648C409.805 116.154 410.035 116.775 410.035 117.51C410.035 118.245 409.805 118.858 409.345 119.348C408.885 119.838 408.211 120.083 407.325 120.083C406.438 120.083 405.764 119.838 405.304 119.348C404.861 118.858 404.639 118.245 404.639 117.51Z" fill="#1A2E35"/>
<path d="M415.676 137.554C415.676 134.957 416.186 132.621 417.204 130.546C418.239 128.471 419.668 126.87 421.491 125.743C423.33 124.616 425.424 124.052 427.773 124.052C431.403 124.052 434.335 125.302 436.568 127.802C438.818 130.301 439.944 133.625 439.944 137.775V138.093C439.944 140.674 439.443 142.994 438.441 145.052C437.455 147.094 436.035 148.687 434.179 149.831C432.339 150.974 430.22 151.546 427.822 151.546C424.209 151.546 421.277 150.296 419.027 147.797C416.793 145.298 415.676 141.989 415.676 137.873V137.554ZM420.259 138.093C420.259 141.034 420.94 143.394 422.304 145.175C423.683 146.956 425.523 147.846 427.822 147.846C430.138 147.846 431.978 146.947 433.341 145.15C434.704 143.337 435.386 140.805 435.386 137.554C435.386 134.646 434.688 132.294 433.292 130.497C431.912 128.684 430.072 127.777 427.773 127.777C425.523 127.777 423.708 128.667 422.328 130.448C420.949 132.229 420.259 134.777 420.259 138.093Z" fill="#1A2E35"/>
<path d="M449.971 124.543L450.119 127.875C452.155 125.327 454.816 124.052 458.101 124.052C463.734 124.052 466.576 127.214 466.625 133.536V151.056H462.067V133.511C462.051 131.6 461.607 130.187 460.737 129.272C459.883 128.357 458.544 127.9 456.721 127.9C455.243 127.9 453.945 128.292 452.829 129.076C451.712 129.86 450.841 130.889 450.217 132.163V151.056H445.659V124.543H449.971Z" fill="#1A2E35"/>
</svg>
