<svg width="1275" height="527" viewBox="0 0 1275 527" fill="none" xmlns="http://www.w3.org/2000/svg">
<path fill-rule="evenodd" clip-rule="evenodd" d="M495.919 340.762C464.924 420.124 387.717 476.346 297.38 476.346C207.042 476.346 129.836 420.125 98.8411 340.763L156.876 275.371L437.884 275.371L495.919 340.762ZM510.107 275.371H437.884L297.38 117.057L156.876 275.371H84.6521C84.4282 271.37 84.3148 267.339 84.3148 263.281C84.3148 145.608 179.707 50.216 297.38 50.216C415.052 50.216 510.445 145.608 510.445 263.281C510.445 267.339 510.331 271.37 510.107 275.371ZM560.305 275.372C560.486 271.364 560.578 267.333 560.578 263.281C560.578 117.921 442.74 0.0831299 297.38 0.0831299C152.02 0.0831299 34.1819 117.921 34.1819 263.281C34.1819 267.333 34.2734 271.364 34.4546 275.371H0.760505L0.760498 451.276L62.3522 381.877C105.725 467.662 194.684 526.479 297.38 526.479C400.076 526.479 489.035 467.662 532.408 381.877L594 451.276L594 275.372H560.305Z" fill="#5AE4A7"/>
<path d="M791.917 239.438C785.589 247.016 776.644 252.914 765.082 257.133C753.519 261.274 740.707 263.344 726.644 263.344C711.878 263.344 698.91 260.141 687.738 253.735C676.644 247.25 668.05 237.875 661.957 225.61C655.941 213.344 652.855 198.93 652.699 182.367V170.766C652.699 153.735 655.55 139.008 661.253 126.586C667.035 114.086 675.316 104.555 686.097 97.9924C696.957 91.3518 709.652 88.0315 724.183 88.0315C744.417 88.0315 760.238 92.8752 771.644 102.563C783.05 112.172 789.808 126.196 791.917 144.633H757.699C756.136 134.867 752.66 127.719 747.269 123.188C741.957 118.656 734.613 116.391 725.238 116.391C713.285 116.391 704.183 120.883 697.933 129.867C691.683 138.852 688.519 152.211 688.441 169.946V180.844C688.441 198.735 691.839 212.25 698.636 221.391C705.433 230.531 715.394 235.102 728.519 235.102C741.722 235.102 751.136 232.289 756.761 226.664V197.25H724.769V171.352H791.917V239.438Z" fill="#1A2E35"/>
<path d="M889.535 165.961C884.925 165.336 880.863 165.024 877.347 165.024C864.535 165.024 856.136 169.36 852.152 178.031V261H818.285V134.203H850.277L851.214 149.321C858.011 137.68 867.425 131.86 879.457 131.86C883.207 131.86 886.722 132.367 890.003 133.383L889.535 165.961Z" fill="#1A2E35"/>
<path d="M975.902 261C974.339 257.953 973.207 254.164 972.503 249.633C964.3 258.774 953.636 263.344 940.511 263.344C928.089 263.344 917.777 259.75 909.574 252.563C901.449 245.375 897.386 236.313 897.386 225.375C897.386 211.938 902.347 201.625 912.269 194.438C922.269 187.25 936.683 183.617 955.511 183.539H971.097V176.274C971.097 170.414 969.574 165.727 966.527 162.211C963.558 158.696 958.832 156.938 952.347 156.938C946.644 156.938 942.152 158.305 938.871 161.039C935.667 163.774 934.066 167.524 934.066 172.289H900.199C900.199 164.946 902.464 158.149 906.996 151.899C911.527 145.649 917.933 140.766 926.214 137.25C934.496 133.656 943.792 131.86 954.105 131.86C969.73 131.86 982.113 135.805 991.253 143.696C1000.47 151.508 1005.08 162.524 1005.08 176.742V231.703C1005.16 243.735 1006.84 252.836 1010.12 259.008V261H975.902ZM947.894 237.446C952.894 237.446 957.503 236.352 961.722 234.164C965.941 231.899 969.066 228.891 971.097 225.141V203.344H958.441C941.488 203.344 932.464 209.203 931.371 220.922L931.253 222.914C931.253 227.133 932.738 230.61 935.707 233.344C938.675 236.078 942.738 237.446 947.894 237.446Z" fill="#1A2E35"/>
<path d="M1062.27 134.203L1063.32 148.852C1072.39 137.524 1084.53 131.86 1099.77 131.86C1113.21 131.86 1123.21 135.805 1129.77 143.696C1136.33 151.586 1139.69 163.383 1139.85 179.086V261H1105.98V179.906C1105.98 172.719 1104.42 167.524 1101.29 164.321C1098.17 161.039 1092.97 159.399 1085.71 159.399C1076.18 159.399 1069.03 163.461 1064.26 171.586V261H1030.39V134.203H1062.27Z" fill="#1A2E35"/>
<path d="M1160.35 196.664C1160.35 176.899 1164.77 161.156 1173.6 149.438C1182.5 137.719 1194.65 131.86 1210.04 131.86C1222.39 131.86 1232.58 136.469 1240.63 145.688V81.0002H1274.61V261H1244.03L1242.39 247.524C1233.95 258.071 1223.09 263.344 1209.81 263.344C1194.89 263.344 1182.89 257.485 1173.83 245.766C1164.85 233.969 1160.35 217.602 1160.35 196.664ZM1194.22 199.125C1194.22 211 1196.29 220.102 1200.43 226.43C1204.57 232.758 1210.59 235.922 1218.48 235.922C1228.95 235.922 1236.33 231.508 1240.63 222.68V172.641C1236.41 163.813 1229.1 159.399 1218.71 159.399C1202.39 159.399 1194.22 172.641 1194.22 199.125Z" fill="#1A2E35"/>
<path d="M800.737 399.289C799.47 416.883 792.984 430.733 781.28 440.84C769.65 450.947 754.292 456 735.207 456C714.333 456 697.894 448.963 685.892 434.888C673.964 420.738 668 401.348 668 376.717V366.722C668 351 670.758 337.15 676.275 325.171C681.791 313.193 689.657 304.022 699.87 297.658C710.158 291.219 722.086 288 735.654 288C754.441 288 769.575 293.054 781.056 303.161C792.537 313.268 799.172 327.455 800.961 345.722H767.413C766.593 335.166 763.648 327.53 758.579 322.813C753.584 318.022 745.943 315.626 735.654 315.626C724.472 315.626 716.085 319.669 710.494 327.754C704.977 335.765 702.144 348.23 701.995 365.15V377.503C701.995 395.171 704.641 408.086 709.934 416.246C715.302 424.407 723.726 428.487 735.207 428.487C745.57 428.487 753.286 426.129 758.355 421.412C763.499 416.621 766.444 409.246 767.19 399.289H800.737Z" fill="#1A2E35"/>
<path d="M815.61 391.877C815.61 379.824 817.921 369.08 822.544 359.647C827.166 350.214 833.801 342.915 842.449 337.749C851.171 332.583 861.273 330 872.754 330C889.08 330 902.388 335.016 912.676 345.048C923.038 355.08 928.816 368.706 930.009 385.925L930.232 394.236C930.232 412.877 925.051 427.851 914.689 439.155C904.326 450.385 890.422 456 872.977 456C855.532 456 841.591 450.385 831.154 439.155C820.792 427.925 815.61 412.653 815.61 393.337V391.877ZM847.928 394.236C847.928 405.765 850.09 414.599 854.414 420.738C858.738 426.802 864.926 429.834 872.977 429.834C880.805 429.834 886.918 426.84 891.317 420.851C895.715 414.786 897.915 405.129 897.915 391.877C897.915 380.572 895.715 371.813 891.317 365.599C886.918 359.385 880.731 356.278 872.754 356.278C864.851 356.278 858.738 359.385 854.414 365.599C850.09 371.738 847.928 381.284 847.928 394.236Z" fill="#1A2E35"/>
<path d="M1018.13 362.679C1013.73 362.08 1009.85 361.781 1006.5 361.781C994.272 361.781 986.258 365.936 982.455 374.246V453.754H950.138V332.246H980.666L981.561 346.733C988.047 335.578 997.03 330 1008.51 330C1012.09 330 1015.44 330.487 1018.58 331.46L1018.13 362.679Z" fill="#1A2E35"/>
<path d="M1087.24 456C1069.49 456 1055.03 450.535 1043.85 439.605C1032.74 428.674 1027.19 414.113 1027.19 395.92V392.776C1027.19 380.572 1029.53 369.679 1034.23 360.097C1038.93 350.439 1045.56 343.027 1054.14 337.861C1062.78 332.621 1072.62 330 1083.66 330C1100.21 330 1113.22 335.241 1122.69 345.722C1132.23 356.203 1137 371.064 1137 390.305V403.556H1059.95C1060.99 411.492 1064.13 417.856 1069.34 422.647C1074.64 427.439 1081.31 429.834 1089.36 429.834C1101.81 429.834 1111.54 425.305 1118.55 416.246L1134.43 434.102C1129.58 440.99 1123.02 446.38 1114.75 450.273C1106.47 454.091 1097.3 456 1087.24 456ZM1083.55 356.278C1077.14 356.278 1071.92 358.449 1067.89 362.792C1063.94 367.134 1061.4 373.348 1060.29 381.433H1105.24V378.851C1105.09 371.663 1103.15 366.123 1099.43 362.23C1095.7 358.262 1090.41 356.278 1083.55 356.278Z" fill="#1A2E35"/>
</svg>
